<svg width="575" height="1023" viewBox="0 0 575 1023" fill="none" xmlns="http://www.w3.org/2000/svg">
<mask id="path-1-inside-1_202_19" fill="white">
<path fill-rule="evenodd" clip-rule="evenodd" d="M568.319 349.402C572.694 329.464 575 308.751 575 287.5C575 128.718 446.282 0 287.5 0C128.718 0 0 128.718 0 287.5C0 333.742 10.9173 377.434 30.315 416.14L228.795 1001.14C238.213 1028.9 276.894 1030.44 288.489 1003.52L530.955 440.495C546.604 415.646 558.554 388.233 566.031 359.029C567.329 355.84 568.072 352.601 568.319 349.402Z"/>
</mask>
<path fill-rule="evenodd" clip-rule="evenodd" d="M568.319 349.402C572.694 329.464 575 308.751 575 287.5C575 128.718 446.282 0 287.5 0C128.718 0 0 128.718 0 287.5C0 333.742 10.9173 377.434 30.315 416.14L228.795 1001.14C238.213 1028.9 276.894 1030.44 288.489 1003.52L530.955 440.495C546.604 415.646 558.554 388.233 566.031 359.029C567.329 355.84 568.072 352.601 568.319 349.402Z" fill="#FC732B"/>
<path d="M568.319 349.402L567.343 349.188L567.328 349.256L567.322 349.325L568.319 349.402ZM30.315 416.14L31.2619 415.819L31.2398 415.754L31.209 415.692L30.315 416.14ZM228.795 1001.14L229.742 1000.82L229.742 1000.82L228.795 1001.14ZM288.489 1003.52L289.407 1003.91L289.407 1003.91L288.489 1003.52ZM530.955 440.495L530.109 439.962L530.068 440.028L530.037 440.099L530.955 440.495ZM566.031 359.029L565.105 358.653L565.079 358.715L565.063 358.781L566.031 359.029ZM574 287.5C574 308.679 571.702 329.32 567.343 349.188L569.296 349.616C573.686 329.609 576 308.824 576 287.5H574ZM287.5 1C445.73 1 574 129.27 574 287.5H576C576 128.166 446.834 -1 287.5 -1V1ZM1 287.5C1 129.27 129.27 1 287.5 1V-1C128.166 -1 -1 128.166 -1 287.5H1ZM31.209 415.692C11.8794 377.122 1 333.583 1 287.5H-1C-1 333.901 9.95514 377.747 29.421 416.588L31.209 415.692ZM229.742 1000.82L31.2619 415.819L29.368 416.461L227.848 1001.46L229.742 1000.82ZM287.57 1003.12C276.338 1029.2 238.866 1027.71 229.742 1000.82L227.848 1001.46C237.56 1030.09 277.451 1031.68 289.407 1003.91L287.57 1003.12ZM530.037 440.099L287.57 1003.12L289.407 1003.91L531.874 440.89L530.037 440.099ZM565.063 358.781C557.611 387.882 545.703 415.199 530.109 439.962L531.802 441.028C547.505 416.092 559.496 388.584 567 359.277L565.063 358.781ZM567.322 349.325C567.083 352.421 566.364 355.559 565.105 358.653L566.958 359.406C568.294 356.12 569.061 352.78 569.316 349.479L567.322 349.325Z" fill="black" mask="url(#path-1-inside-1_202_19)"/>
</svg>
